<mxfile host="app.diagrams.net" modified="2023-11-05T12:43:49.524Z" agent="Mozilla/5.0 (Windows NT 10.0; Win64; x64) AppleWebKit/537.36 (KHTML, like Gecko) Chrome/119.0.0.0 Safari/537.36 Edg/119.0.0.0" etag="l3nYaqG8D-oP7c9U2jPn" version="22.0.8" type="github">
  <diagram name="Pagina-1" id="PuCSkXzhq6iDSD-JDsau">
    <mxGraphModel dx="1030" dy="535" grid="1" gridSize="10" guides="1" tooltips="1" connect="1" arrows="1" fold="1" page="1" pageScale="1" pageWidth="827" pageHeight="1169" math="0" shadow="0">
      <root>
        <mxCell id="0" />
        <mxCell id="1" parent="0" />
        <mxCell id="dlnl32mdN41B_qW-PVoW-2" value="Lucrari cadastru GIS" style="shape=cylinder3;whiteSpace=wrap;html=1;boundedLbl=1;backgroundOutline=1;size=15;fillColor=#60a917;strokeColor=#2D7600;fontColor=#000000;labelBackgroundColor=none;labelBorderColor=none;fontStyle=1" vertex="1" parent="1">
          <mxGeometry x="10" y="10" width="100" height="110" as="geometry" />
        </mxCell>
        <mxCell id="dlnl32mdN41B_qW-PVoW-3" value="sectoare_cadastrale" style="rounded=0;whiteSpace=wrap;html=1;fillColor=#008a00;fontColor=#ffffff;strokeColor=#005700;" vertex="1" parent="1">
          <mxGeometry x="150" y="80" width="120" height="60" as="geometry" />
        </mxCell>
        <mxCell id="dlnl32mdN41B_qW-PVoW-4" value="retea_sprijin" style="rounded=0;whiteSpace=wrap;html=1;" vertex="1" parent="1">
          <mxGeometry x="270" y="310" width="120" height="60" as="geometry" />
        </mxCell>
        <mxCell id="dlnl32mdN41B_qW-PVoW-5" value="echipa" style="rounded=0;whiteSpace=wrap;html=1;" vertex="1" parent="1">
          <mxGeometry x="270" y="380" width="120" height="60" as="geometry" />
        </mxCell>
        <mxCell id="dlnl32mdN41B_qW-PVoW-6" value="angajati" style="rounded=0;whiteSpace=wrap;html=1;" vertex="1" parent="1">
          <mxGeometry x="270" y="450" width="120" height="60" as="geometry" />
        </mxCell>
        <mxCell id="dlnl32mdN41B_qW-PVoW-7" value="echipament" style="rounded=0;whiteSpace=wrap;html=1;" vertex="1" parent="1">
          <mxGeometry x="404" y="240" width="120" height="60" as="geometry" />
        </mxCell>
        <mxCell id="dlnl32mdN41B_qW-PVoW-8" value="hardware" style="rounded=0;whiteSpace=wrap;html=1;" vertex="1" parent="1">
          <mxGeometry x="404" y="310" width="120" height="60" as="geometry" />
        </mxCell>
        <mxCell id="dlnl32mdN41B_qW-PVoW-9" value="flota" style="rounded=0;whiteSpace=wrap;html=1;" vertex="1" parent="1">
          <mxGeometry x="404" y="380" width="120" height="60" as="geometry" />
        </mxCell>
        <mxCell id="dlnl32mdN41B_qW-PVoW-10" value="documente" style="rounded=0;whiteSpace=wrap;html=1;" vertex="1" parent="1">
          <mxGeometry x="404" y="450" width="120" height="60" as="geometry" />
        </mxCell>
        <mxCell id="dlnl32mdN41B_qW-PVoW-11" value="masuratoare" style="rounded=0;whiteSpace=wrap;html=1;" vertex="1" parent="1">
          <mxGeometry x="540" y="240" width="120" height="60" as="geometry" />
        </mxCell>
        <mxCell id="dlnl32mdN41B_qW-PVoW-12" value="primarie" style="rounded=0;whiteSpace=wrap;html=1;" vertex="1" parent="1">
          <mxGeometry x="540" y="310" width="120" height="60" as="geometry" />
        </mxCell>
        <mxCell id="dlnl32mdN41B_qW-PVoW-13" value="proprietar" style="rounded=0;whiteSpace=wrap;html=1;" vertex="1" parent="1">
          <mxGeometry x="540" y="380" width="120" height="60" as="geometry" />
        </mxCell>
        <mxCell id="dlnl32mdN41B_qW-PVoW-14" value="software" style="rounded=0;whiteSpace=wrap;html=1;" vertex="1" parent="1">
          <mxGeometry x="540" y="450" width="120" height="60" as="geometry" />
        </mxCell>
        <mxCell id="dlnl32mdN41B_qW-PVoW-15" value="dosar" style="rounded=0;whiteSpace=wrap;html=1;" vertex="1" parent="1">
          <mxGeometry x="670" y="240" width="120" height="60" as="geometry" />
        </mxCell>
        <mxCell id="dlnl32mdN41B_qW-PVoW-16" value="template" style="rounded=0;whiteSpace=wrap;html=1;" vertex="1" parent="1">
          <mxGeometry x="670" y="310" width="120" height="60" as="geometry" />
        </mxCell>
        <mxCell id="dlnl32mdN41B_qW-PVoW-17" value="plase" style="rounded=0;whiteSpace=wrap;html=1;" vertex="1" parent="1">
          <mxGeometry x="670" y="380" width="120" height="60" as="geometry" />
        </mxCell>
        <mxCell id="dlnl32mdN41B_qW-PVoW-18" value="respingeri" style="rounded=0;whiteSpace=wrap;html=1;" vertex="1" parent="1">
          <mxGeometry x="670" y="450" width="120" height="60" as="geometry" />
        </mxCell>
        <mxCell id="dlnl32mdN41B_qW-PVoW-19" value="completarii" style="rounded=0;whiteSpace=wrap;html=1;" vertex="1" parent="1">
          <mxGeometry x="800" y="240" width="120" height="60" as="geometry" />
        </mxCell>
        <mxCell id="dlnl32mdN41B_qW-PVoW-20" value="contestatii" style="rounded=0;whiteSpace=wrap;html=1;" vertex="1" parent="1">
          <mxGeometry x="800" y="310" width="120" height="60" as="geometry" />
        </mxCell>
      </root>
    </mxGraphModel>
  </diagram>
</mxfile>
